<?xml version="1.0" standalone="no"?>
<!DOCTYPE svg PUBLIC "-//W3C//DTD SVG 20010904//EN"
 "http://www.w3.org/TR/2001/REC-SVG-20010904/DTD/svg10.dtd">
<svg version="1.0" xmlns="http://www.w3.org/2000/svg"
 width="100.000000pt" height="100.000000pt" viewBox="0 0 100.000000 100.000000"
 preserveAspectRatio="xMidYMid meet">
<metadata>
Created by potrace 1.14, written by Peter Selinger 2001-2017
</metadata>
<g transform="translate(0.000000,100.000000) scale(0.100000,-0.100000)"
fill="#000000" stroke="none">
<path d="M496 922 c-4 -4 -26 -8 -49 -8 -23 -1 -52 -5 -64 -8 -13 -3 -31 -8
-42 -10 -22 -5 -117 -53 -138 -69 -50 -39 -98 -98 -125 -151 -26 -52 -31 -74
-33 -144 -2 -45 1 -85 6 -88 5 -3 7 -10 3 -15 -7 -12 64 -139 78 -139 6 0 9
-3 6 -6 -8 -7 17 -33 55 -57 19 -12 26 -24 23 -40 -3 -12 -5 -22 -6 -22 -1 0
-4 -11 -6 -25 -3 -14 -9 -26 -14 -28 -6 -2 -10 -8 -10 -14 0 -5 -7 -16 -15
-25 -18 -18 -14 -40 6 -34 8 2 28 5 44 7 60 6 105 26 149 66 17 16 34 24 40
19 12 -9 179 -7 214 3 12 3 30 8 41 10 23 5 118 53 138 69 97 81 149 167 158
262 2 17 4 32 5 35 1 3 1 10 0 15 -1 6 -4 29 -5 52 -5 70 -79 188 -158 250
-21 16 -116 64 -138 69 -11 2 -29 7 -41 10 -13 3 -39 7 -58 8 -19 1 -40 5 -46
8 -6 4 -14 4 -18 0z"/>
</g>
</svg>
